<?xml version="1.0" encoding="UTF-8" standalone="no"?>
<!DOCTYPE svg PUBLIC "-//W3C//DTD SVG 1.1//EN"
 "http://www.w3.org/Graphics/SVG/1.1/DTD/svg11.dtd">
<!-- Generated by graphviz version 2.43.0 (0)
 -->
<!-- Title: %3 Pages: 1 -->
<svg width="351pt" height="260pt"
 viewBox="0.00 0.00 351.00 260.00" xmlns="http://www.w3.org/2000/svg" xmlns:xlink="http://www.w3.org/1999/xlink">
<g id="graph0" class="graph" transform="scale(1 1) rotate(0) translate(4 256)">
<title>%3</title>
<polygon fill="white" stroke="transparent" points="-4,4 -4,-256 347,-256 347,4 -4,4"/>
<!-- P2 -->
<g id="node1" class="node">
<title>P2</title>
<ellipse fill="none" stroke="black" cx="207" cy="-234" rx="27" ry="18"/>
<text text-anchor="middle" x="207" y="-230.3" font-family="Times,serif" font-size="14.00">P2</text>
</g>
<!-- P8 -->
<g id="node2" class="node">
<title>P8</title>
<ellipse fill="none" stroke="black" cx="170" cy="-162" rx="27" ry="18"/>
<text text-anchor="middle" x="170" y="-158.3" font-family="Times,serif" font-size="14.00">P8</text>
</g>
<!-- P2&#45;&#45;P8 -->
<g id="edge1" class="edge">
<title>P2&#45;&#45;P8</title>
<path fill="none" stroke="black" d="M198.42,-216.76C192.44,-205.46 184.5,-190.44 178.54,-179.15"/>
</g>
<!-- P10 -->
<g id="node3" class="node">
<title>P10</title>
<ellipse fill="none" stroke="black" cx="244" cy="-162" rx="28.7" ry="18"/>
<text text-anchor="middle" x="244" y="-158.3" font-family="Times,serif" font-size="14.00">P10</text>
</g>
<!-- P2&#45;&#45;P10 -->
<g id="edge2" class="edge">
<title>P2&#45;&#45;P10</title>
<path fill="none" stroke="black" d="M215.58,-216.76C221.47,-205.62 229.27,-190.87 235.21,-179.63"/>
</g>
<!-- P1 -->
<g id="node4" class="node">
<title>P1</title>
<ellipse fill="none" stroke="black" cx="99" cy="-90" rx="27" ry="18"/>
<text text-anchor="middle" x="99" y="-86.3" font-family="Times,serif" font-size="14.00">P1</text>
</g>
<!-- P8&#45;&#45;P1 -->
<g id="edge3" class="edge">
<title>P8&#45;&#45;P1</title>
<path fill="none" stroke="black" d="M155.29,-146.5C143.1,-134.48 125.87,-117.49 113.69,-105.49"/>
</g>
<!-- P6 -->
<g id="node5" class="node">
<title>P6</title>
<ellipse fill="none" stroke="black" cx="171" cy="-90" rx="27" ry="18"/>
<text text-anchor="middle" x="171" y="-86.3" font-family="Times,serif" font-size="14.00">P6</text>
</g>
<!-- P8&#45;&#45;P6 -->
<g id="edge4" class="edge">
<title>P8&#45;&#45;P6</title>
<path fill="none" stroke="black" d="M170.25,-143.7C170.4,-132.85 170.6,-118.92 170.76,-108.1"/>
</g>
<!-- P3 -->
<g id="node6" class="node">
<title>P3</title>
<ellipse fill="none" stroke="black" cx="244" cy="-90" rx="27" ry="18"/>
<text text-anchor="middle" x="244" y="-86.3" font-family="Times,serif" font-size="14.00">P3</text>
</g>
<!-- P10&#45;&#45;P3 -->
<g id="edge5" class="edge">
<title>P10&#45;&#45;P3</title>
<path fill="none" stroke="black" d="M244,-143.7C244,-132.85 244,-118.92 244,-108.1"/>
</g>
<!-- P5 -->
<g id="node7" class="node">
<title>P5</title>
<ellipse fill="none" stroke="black" cx="316" cy="-90" rx="27" ry="18"/>
<text text-anchor="middle" x="316" y="-86.3" font-family="Times,serif" font-size="14.00">P5</text>
</g>
<!-- P10&#45;&#45;P5 -->
<g id="edge6" class="edge">
<title>P10&#45;&#45;P5</title>
<path fill="none" stroke="black" d="M258.92,-146.5C271.28,-134.48 288.75,-117.49 301.1,-105.49"/>
</g>
<!-- P7 -->
<g id="node8" class="node">
<title>P7</title>
<ellipse fill="none" stroke="black" cx="27" cy="-18" rx="27" ry="18"/>
<text text-anchor="middle" x="27" y="-14.3" font-family="Times,serif" font-size="14.00">P7</text>
</g>
<!-- P1&#45;&#45;P7 -->
<g id="edge7" class="edge">
<title>P1&#45;&#45;P7</title>
<path fill="none" stroke="black" d="M84.43,-74.83C72.02,-62.77 54.27,-45.51 41.8,-33.38"/>
</g>
<!-- P9 -->
<g id="node9" class="node">
<title>P9</title>
<ellipse fill="none" stroke="black" cx="99" cy="-18" rx="27" ry="18"/>
<text text-anchor="middle" x="99" y="-14.3" font-family="Times,serif" font-size="14.00">P9</text>
</g>
<!-- P1&#45;&#45;P9 -->
<g id="edge8" class="edge">
<title>P1&#45;&#45;P9</title>
<path fill="none" stroke="black" d="M99,-71.7C99,-60.85 99,-46.92 99,-36.1"/>
</g>
<!-- P4 -->
<g id="node10" class="node">
<title>P4</title>
<ellipse fill="none" stroke="black" cx="171" cy="-18" rx="27" ry="18"/>
<text text-anchor="middle" x="171" y="-14.3" font-family="Times,serif" font-size="14.00">P4</text>
</g>
<!-- P6&#45;&#45;P4 -->
<g id="edge9" class="edge">
<title>P6&#45;&#45;P4</title>
<path fill="none" stroke="black" d="M171,-71.7C171,-60.85 171,-46.92 171,-36.1"/>
</g>
</g>
</svg>
